<svg width="1600" height="400" viewBox="0 0 1600 400" fill="none" xmlns="http://www.w3.org/2000/svg">
<path d="M1276.85 386.208V336.682H1286.43V344.309H1286.64C1289.09 339.085 1295.47 335.428 1301.74 335.428C1303.23 335.428 1304.72 335.637 1306 336.055L1305.57 346.19C1303.98 345.772 1302.38 345.458 1300.89 345.458C1291.53 345.458 1286.43 350.474 1286.43 361.34V386.208H1276.85Z" fill="#333333"/>
<path d="M1265.4 364.893H1224.98C1224.98 373.565 1233.17 379.312 1242 379.312C1247.85 379.312 1252.1 376.386 1255.83 371.893L1263.06 377.327C1257.74 384.118 1250.4 387.462 1240.72 387.462C1224.77 387.462 1214.77 376.177 1214.77 361.445C1214.77 346.608 1225.72 335.428 1240.83 335.428C1258.59 335.428 1265.4 348.802 1265.4 361.549V364.893ZM1224.98 357.37H1255.19C1254.98 349.115 1250.3 342.951 1240.62 342.951C1231.15 342.951 1224.98 350.787 1224.98 357.37Z" fill="#333333"/>
<path d="M1205.39 336.682V344.831H1191.67V367.296C1191.67 372.834 1191.67 378.685 1198.9 378.685C1201.14 378.685 1203.8 378.371 1205.71 377.222V385.79C1203.48 387.044 1199.01 387.462 1197.09 387.462C1182.31 387.462 1182.09 378.58 1182.09 370.639V344.831H1171.03V336.682H1182.09V322.785H1191.67V336.682H1205.39Z" fill="#333333"/>
<path d="M1166.02 336.682V344.831H1152.29V367.296C1152.29 372.834 1152.29 378.685 1159.53 378.685C1161.76 378.685 1164.42 378.371 1166.34 377.222V385.79C1164.1 387.044 1159.63 387.462 1157.72 387.462C1142.93 387.462 1142.72 378.58 1142.72 370.639V344.831H1131.66V336.682H1142.72V322.785H1152.29V336.682H1166.02Z" fill="#333333"/>
<path d="M1127.54 364.893H1087.12C1087.12 373.565 1095.31 379.312 1104.14 379.312C1109.99 379.312 1114.25 376.386 1117.97 371.893L1125.2 377.327C1119.88 384.118 1112.54 387.462 1102.86 387.462C1086.91 387.462 1076.91 376.177 1076.91 361.445C1076.91 346.608 1087.86 335.428 1102.97 335.428C1120.73 335.428 1127.54 348.802 1127.54 361.549V364.893ZM1087.12 357.37H1117.33C1117.12 349.115 1112.44 342.951 1102.76 342.951C1093.29 342.951 1087.12 350.787 1087.12 357.37Z" fill="#333333"/>
<path d="M1015.33 386.208V312.232H1041.5C1054.58 312.232 1064.37 318.188 1064.37 330.726C1064.37 339.189 1059.05 344.518 1051.39 347.026V347.235C1060.43 347.862 1067.67 355.698 1067.67 365.624C1067.67 378.894 1055.86 386.208 1041.18 386.208H1015.33ZM1025.54 321.009V342.951H1039.48C1047.24 342.951 1053.52 339.921 1053.52 331.875C1053.52 326.024 1049.79 321.009 1041.6 321.009H1025.54ZM1025.54 351.727V377.431H1040.54C1046.71 377.431 1056.82 375.341 1056.82 364.893C1056.82 356.116 1050.54 351.727 1040.65 351.727H1025.54Z" fill="#333333"/>
<path d="M971.816 364.893H931.392C931.392 373.565 939.583 379.312 948.413 379.312C954.263 379.312 958.519 376.386 962.242 371.893L969.476 377.327C964.157 384.118 956.817 387.462 947.136 387.462C931.179 387.462 921.18 376.177 921.18 361.445C921.18 346.608 932.137 335.428 947.242 335.428C965.008 335.428 971.816 348.802 971.816 361.549V364.893ZM931.392 357.37H961.604C961.391 349.115 956.71 342.951 947.03 342.951C937.562 342.951 931.392 350.787 931.392 357.37Z" fill="#333333"/>
<path d="M909.648 307.217V386.208H900.074V379.103H899.862C896.138 384.432 889.117 387.462 882.309 387.462C866.672 387.462 856.672 376.073 856.672 361.445C856.672 346.608 866.778 335.428 882.309 335.428C889.543 335.428 896.457 338.667 899.862 343.787H900.074V307.217H909.648ZM883.479 378.685C893.692 378.685 900.074 371.475 900.074 361.445C900.074 351.414 893.692 344.205 883.479 344.205C873.267 344.205 866.884 351.414 866.884 361.445C866.884 371.475 873.267 378.685 883.479 378.685Z" fill="#333333"/>
<path d="M809.92 348.593L804.175 342.742C809.494 337.831 817.153 335.428 824.174 335.428C839.067 335.428 845.237 343.369 845.237 351.937V377.222C845.237 380.67 845.344 383.596 845.663 386.208H837.153C836.94 383.7 836.833 381.193 836.833 378.685H836.621C832.365 385.059 826.621 387.462 818.962 387.462C809.6 387.462 801.516 382.237 801.516 372.625C801.516 359.877 813.962 355.489 829.281 355.489H836.301V353.399C836.301 348.28 832.472 342.951 824.281 342.951C816.941 342.951 813.43 345.981 809.92 348.593ZM836.301 362.385H831.195C822.153 362.385 811.09 363.952 811.09 371.893C811.09 377.536 815.345 379.939 821.94 379.939C832.578 379.939 836.301 372.207 836.301 365.52V362.385Z" fill="#333333"/>
<path d="M764.594 386.208V336.682H774.168V344.309H774.381C776.827 339.085 783.21 335.428 789.486 335.428C790.976 335.428 792.465 335.637 793.741 336.055L793.316 346.19C791.72 345.772 790.125 345.458 788.635 345.458C779.274 345.458 774.168 350.474 774.168 361.34V386.208H764.594Z" fill="#333333"/>
<path d="M731.457 386.208V321.636H707.203V312.232H765.924V321.636H741.67V386.208H731.457Z" fill="#333333"/>
<path d="M669.589 374.297L660.653 400H651.93L659.27 374.297H669.589Z" fill="#333333"/>
<path d="M594.945 386.208V336.682H604.519V344.309H604.732C607.179 339.085 613.562 335.428 621.327 335.428C631.114 335.428 639.624 341.174 639.624 354.34V386.208H630.05V356.952C630.05 347.653 624.625 344.205 618.561 344.205C610.583 344.205 604.519 349.22 604.519 360.713V386.208H594.945Z" fill="#333333"/>
<path d="M570.132 386.208V336.682H579.706V386.208H570.132ZM567.898 318.919C567.898 315.157 571.09 312.023 574.919 312.023C578.749 312.023 581.94 315.157 581.94 318.919C581.94 322.68 578.749 325.815 574.919 325.815C571.09 325.815 567.898 322.68 567.898 318.919Z" fill="#333333"/>
<path d="M528.324 364.893H487.9C487.9 373.565 496.091 379.312 504.92 379.312C510.771 379.312 515.026 376.386 518.75 371.893L525.983 377.327C520.664 384.118 513.324 387.462 503.644 387.462C487.687 387.462 477.688 376.177 477.688 361.445C477.688 346.608 488.644 335.428 503.75 335.428C521.515 335.428 528.324 348.802 528.324 361.549V364.893ZM487.9 357.37H518.111C517.899 349.115 513.218 342.951 503.538 342.951C494.07 342.951 487.9 350.787 487.9 357.37Z" fill="#333333"/>
<path d="M421.562 386.208V336.682H431.137V344.309H431.349C433.796 339.085 440.179 335.428 447.944 335.428C457.731 335.428 466.242 341.174 466.242 354.34V386.208H456.667V356.952C456.667 347.653 451.242 344.205 445.179 344.205C437.2 344.205 431.137 349.22 431.137 360.713V386.208H421.562Z" fill="#333333"/>
<path d="M407.124 336.682V386.208H397.55V378.581H397.338C394.891 383.805 388.508 387.462 380.742 387.462C370.956 387.462 362.445 381.715 362.445 368.55V336.682H372.019V365.938C372.019 375.237 377.445 378.685 383.508 378.685C391.487 378.685 397.55 373.67 397.55 362.176V336.682H407.124Z" fill="#333333"/>
<path d="M330.254 386.208V321.636H306V312.232H364.721V321.636H340.467V386.208H330.254Z" fill="#333333"/>
<path d="M976.071 0.72998C1004.54 0.72998 1029.51 5.96064 1050.99 16.422C1072.72 26.8833 1089.41 41.8454 1101.06 61.3084C1112.96 80.5281 1118.91 102.91 1118.91 128.456C1118.91 154.001 1112.96 176.383 1101.06 195.603C1089.41 214.579 1072.72 229.298 1050.99 239.759C1029.51 250.221 1004.54 255.451 976.071 255.451H881.359V0.72998H976.071ZM974.13 212.025C1002.6 212.025 1024.59 204.726 1040.12 190.129C1055.64 175.532 1063.41 154.974 1063.41 128.456C1063.41 101.937 1055.64 81.2579 1040.12 66.4174C1024.59 51.3336 1002.6 43.7917 974.13 43.7917H935.702V212.025H974.13Z" fill="#333333"/>
<path d="M730.824 206.916H622.915L605.06 255.451H548L645.428 0.36499H708.699L806.127 255.451H748.679L730.824 206.916ZM716.074 166.043L676.869 59.4837L637.665 166.043H716.074Z" fill="#333333"/>
<path d="M416.949 255.451L357.172 156.19H331.553V255.451H277.211V0.72998H378.909C399.87 0.72998 417.725 4.25763 432.475 11.3129C447.225 18.125 458.223 27.4915 465.469 39.4126C472.974 51.0903 476.726 64.2278 476.726 78.825C476.726 95.6118 471.55 110.817 461.199 124.441C450.848 137.822 435.451 147.067 415.008 152.176L479.831 255.451H416.949ZM331.553 117.873H376.968C391.718 117.873 402.716 114.588 409.962 108.019C417.208 101.207 420.831 91.8409 420.831 79.9198C420.831 68.2421 417.208 59.2404 409.962 52.915C402.716 46.3463 391.718 43.0619 376.968 43.0619H331.553V117.873Z" fill="#333333"/>
<path d="M198.738 0.72998V41.9671H126.541V255.451H72.198V41.9671H0V0.72998H198.738Z" fill="#333333"/>
<path d="M1187 0H1233.58V255.451H1187V0Z" fill="#FF4A1F"/>
<path d="M1211.06 105.83H1482.78V149.621H1211.06V105.83Z" fill="#FF4A1F"/>
<path d="M1521.59 125.901C1521.59 151.094 1504.21 171.517 1482.78 171.517C1461.34 171.517 1443.96 151.094 1443.96 125.901C1443.96 100.708 1461.34 80.2848 1482.78 80.2848C1504.21 80.2848 1521.59 100.708 1521.59 125.901Z" fill="#FF4A1F"/>
<path d="M1362.45 75.1469C1393.89 7.29729 1453.28 -10.5579 1514.41 5.51152C1573.8 23.367 1596.51 71.5762 1600 123.356C1598.25 280.482 1406.11 292.981 1362.45 180.493H1418.34C1437.55 217.989 1509.17 226.917 1538.86 169.78C1547.6 159.067 1561.57 91.2167 1519.65 59.0772C1469 25.1523 1425.33 59.0772 1418.34 75.1469H1362.45Z" fill="#333333"/>
</svg>
